<svg height="200px" width="200px" viewBox="0 0 515 515" xmlns="http://www.w3.org/2000/svg">

  <defs>
    <clipPath id="clip-left">
      <rect x="0" y="0" width="220" height="512" />
    </clipPath>
    <clipPath id="clip-right">
      <rect x="220" y="0" width="295" height="512" />
    </clipPath>
  </defs>

  <g clip-path="url(#clip-left)" id="left-group">
    <g>
      <path fill="#f78036" d="M326.3,294.606c0-77.945-63.188-141.134-141.132-141.134c-77.954,0-135.338,63.756-144.72,141.134
          c-5.479,45.22-13.7,113.74-13.7,113.74h39.2l13.708-90.441l84.953-13.7v49.33l-49.078,10.847L98.837,507.007
          c0,0,76.731,24.661,128.802-35.63c34.408-39.836,79.48,19.172,137.032-21.93C329.041,430.266,326.3,372.558,326.3,294.606z"/>
      <path fill="#d41c22" d="M463.332,301.465C476.971,127.581,347.881,0,185.168,0c-55.666,0-107.72,15.446-152.12,42.271l57.263,97.666
          c26.476-16.31,66.086-28.876,99.464-28.876c96.034,0,173.377,77.849,173.883,173.883c0.681,129.03,50.343,180.952,121.594,200.132
          C466.072,452.196,452.372,441.227,463.332,301.465z"/>
    </g>
  </g>

  <g clip-path="url(#clip-right)" id="right-group" filter="url(#colorOverlay)">
    <g>
      <path fill="#ffb330" d="M326.3,294.606c0-77.945-63.188-141.134-141.132-141.134c-77.954,0-135.338,63.756-144.72,141.134
          c-5.479,45.22-13.7,113.74-13.7,113.74h39.2l13.708-90.441l84.953-13.7v49.33l-49.078,10.847L98.837,507.007
          c0,0,76.731,24.661,128.802-35.63c34.408-39.836,79.48,19.172,137.032-21.93C329.041,430.266,326.3,372.558,326.3,294.606z"/>
      <path fill="#ff4747" d="M463.332,301.465C476.971,127.581,347.881,0,185.168,0c-55.666,0-107.72,15.446-152.12,42.271l57.263,97.666
          c26.476-16.31,66.086-28.876,99.464-28.876c96.034,0,173.377,77.849,173.883,173.883c0.681,129.03,50.343,180.952,121.594,200.132
          C466.072,452.196,452.372,441.227,463.332,301.465z"/>
    </g>
  </g>

</svg>
