<svg height="200px" width="200px" version="1.1" xmlns="http://www.w3.org/2000/svg"
     xmlns:xlink="http://www.w3.org/1999/xlink" viewBox="0 0 512 512" xml:space="preserve">
  <defs>
    <!-- Adjusted clipping regions for shifted vertical split (moved left to x=220) -->
    <clipPath id="leftHalf">
      <rect x="0" y="0" width="220" height="512" />
    </clipPath>
    <clipPath id="rightHalf">
      <rect x="220" y="0" width="292" height="512" />
    </clipPath>
  </defs>

  <!-- First component left side (original color) -->
  <path fill="#d35555" clip-path="url(#leftHalf)"
    d="M326.3,294.606c0-77.945-63.188-141.134-141.132-141.134
    c-77.954,0-135.338,63.756-144.72,141.134c-5.479,45.22-13.7,113.74-13.7,113.74h39.2l13.708-90.441
    l84.953-13.7v49.33l-49.078,10.847L98.837,507.007c0,0,76.731,24.661,128.802-35.63
    c34.408-39.836,79.48,19.172,137.032-21.93C329.041,430.266,326.3,372.558,326.3,294.606z" />

  <!-- First component right side (darker shade) -->
  <path fill="#b13f3f" clip-path="url(#rightHalf)"
    d="M326.3,294.606c0-77.945-63.188-141.134-141.132-141.134
    c-77.954,0-135.338,63.756-144.72,141.134c-5.479,45.22-13.7,113.74-13.7,113.74h39.2l13.708-90.441
    l84.953-13.7v49.33l-49.078,10.847L98.837,507.007c0,0,76.731,24.661,128.802-35.63
    c34.408-39.836,79.48,19.172,137.032-21.93C329.041,430.266,326.3,372.558,326.3,294.606z" />

  <!-- Second component left side (original color) -->
  <path fill="#9c4360" clip-path="url(#leftHalf)"
    d="M463.332,301.465C476.971,127.581,347.881,0,185.168,0
    c-55.666,0-107.72,15.446-152.12,42.271l57.263,97.666c26.476-16.31,66.086-28.876,99.464-28.876
    c96.034,0,173.377,77.849,173.883,173.883c0.681,129.03,50.343,180.952,121.594,200.132
    C466.072,452.196,452.372,441.227,463.332,301.465z" />

  <!-- Second component right side (darker shade) -->
  <path fill="#80354f" clip-path="url(#rightHalf)"
    d="M463.332,301.465C476.971,127.581,347.881,0,185.168,0
    c-55.666,0-107.72,15.446-152.12,42.271l57.263,97.666c26.476-16.31,66.086-28.876,99.464-28.876
    c96.034,0,173.377,77.849,173.883,173.883c0.681,129.03,50.343,180.952,121.594,200.132
    C466.072,452.196,452.372,441.227,463.332,301.465z" />
</svg>
